<svg xmlns="http://www.w3.org/2000/svg" viewBox="0 0 32 32" width="32" height="32">
  <defs>
    <style>
      .house { fill: #1e40af; }
      .roof { fill: #dc2626; }
      .door { fill: #374151; }
      .window { fill: #60a5fa; }
      .tank { fill: none; stroke: #1e40af; stroke-width: 1.5; }
      .water { fill: #3b82f6; opacity: 0.8; }
      .wave { fill: #60a5fa; opacity: 0.6; }
    </style>
  </defs>

  <!-- House structure -->
  <rect x="8" y="20" width="16" height="10" class="house" rx="1"/>
  <polygon points="6,20 16,12 26,20" class="roof"/>

  <!-- Door -->
  <rect x="14" y="24" width="4" height="6" class="door"/>
  <circle cx="15" cy="27" r="0.3" fill="#fbbf24"/>

  <!-- Windows -->
  <rect x="10" y="22" width="2" height="2" class="window"/>
  <rect x="20" y="22" width="2" height="2" class="window"/>
  <rect x="10" y="26" width="2" height="2" class="window"/>
  <rect x="20" y="26" width="2" height="2" class="window"/>

  <!-- Water tank on roof -->
  <rect x="13" y="14" width="6" height="4" class="tank" rx="0.5"/>
  <rect x="14" y="15" width="4" height="2" class="water"/>

  <!-- Water waves -->
  <path d="M14 16 Q15 15.5 16 16 Q17 16.5 18 16" class="wave" stroke="none"/>
  <path d="M14 17 Q15 16.5 16 17 Q17 17.5 18 17" class="wave" stroke="none" opacity="0.4"/>

  <!-- Chimney -->
  <rect x="18" y="12" width="2" height="4" fill="#7f1d1d"/>
  <rect x="17.5" y="10" width="3" height="2" fill="#374151"/>
</svg>
